<svg version="1.1" viewBox="0.0 0.0 960.0 720.0" fill="none" stroke="none" stroke-linecap="square" stroke-miterlimit="10" xmlns:xlink="http://www.w3.org/1999/xlink" xmlns="http://www.w3.org/2000/svg"><clipPath id="p.0"><path d="m0 0l960.0 0l0 720.0l-960.0 0l0 -720.0z" clip-rule="nonzero"/></clipPath><g clip-path="url(#p.0)"><path fill="#000000" fill-opacity="0.0" d="m0 0l960.0 0l0 720.0l-960.0 0z" fill-rule="evenodd"/><path fill="#000000" fill-opacity="0.0" d="m479.37534 -5.35958E-4l311.40158 311.40158l-311.40158 311.40158l-311.40158 -311.40158z" fill-rule="evenodd"/><path stroke="#9900ff" stroke-width="1.0" stroke-linejoin="round" stroke-linecap="butt" d="m479.37534 -5.35958E-4l311.40158 311.40158l-311.40158 311.40158l-311.40158 -311.40158z" fill-rule="evenodd"/><path fill="#9900ff" d="m219.02293 433.84665l36.566925 -36.566956l224.40944 224.40945l-36.566925 36.566956z" fill-rule="evenodd"/><path stroke="#9900ff" stroke-width="1.0" stroke-linejoin="round" stroke-linecap="butt" d="m219.02293 433.84665l36.566925 -36.566956l224.40944 224.40945l-36.566925 36.566956z" fill-rule="evenodd"/><path fill="#9900ff" d="m740.9764 433.84644l-36.283447 -36.283478l-224.40945 224.40945l36.283478 36.283447z" fill-rule="evenodd"/><path stroke="#9900ff" stroke-width="1.0" stroke-linejoin="round" stroke-linecap="butt" d="m740.9764 433.84644l-36.283447 -36.283478l-224.40945 224.40945l36.283478 36.283447z" fill-rule="evenodd"/><path fill="#9900ff" d="m479.99915 622.80316l36.125977 36.125977l-36.094482 36.094482l-36.125977 -36.125977z" fill-rule="evenodd"/><path stroke="#9900ff" stroke-width="1.0" stroke-linejoin="round" stroke-linecap="butt" d="m479.99915 622.80316l36.125977 36.125977l-36.094482 36.094482l-36.125977 -36.125977z" fill-rule="evenodd"/></g></svg>